<svg xmlns="http://www.w3.org/2000/svg" width="36" height="34.188" viewBox="0 0 36 34.188">
  <metadata><?xpacket begin="﻿" id="W5M0MpCehiHzreSzNTczkc9d"?>
<x:xmpmeta xmlns:x="adobe:ns:meta/" x:xmptk="Adobe XMP Core 5.6-c138 79.159824, 2016/09/14-01:09:01        ">
   <rdf:RDF xmlns:rdf="http://www.w3.org/1999/02/22-rdf-syntax-ns#">
      <rdf:Description rdf:about=""/>
   </rdf:RDF>
</x:xmpmeta>
                                                                                                    
                                                                                                    
                                                                                                    
                                                                                                    
                                                                                                    
                                                                                                    
                                                                                                    
                                                                                                    
                                                                                                    
                                                                                                    
                                                                                                    
                                                                                                    
                                                                                                    
                                                                                                    
                                                                                                    
                                                                                                    
                                                                                                    
                                                                                                    
                                                                                                    
                                                                                                    
                           
<?xpacket end="w"?></metadata>
<defs>
    <style>
      .cls-1 {
        fill-rule: evenodd;
      }
    </style>
  </defs>
  <path id="icn_menu" class="cls-1" d="M21.991,61.9h26a2,2,0,0,1,2,2V63.92a2,2,0,0,1-2,2h-26a2,2,0,0,1-2-2V63.9A2,2,0,0,1,21.991,61.9Zm0,30.181h26a2,2,0,0,1,2,2V94.1a2,2,0,0,1-2,2h-26a2,2,0,0,1-2-2V94.077A2,2,0,0,1,21.991,92.077Zm0-20.12H54a2,2,0,0,1,2,2v0.024a2,2,0,0,1-2,2H21.991a2,2,0,0,1-2-2V73.957A2,2,0,0,1,21.991,71.957Zm0,10.06H38.005a2,2,0,0,1,2,2v0.024a2,2,0,0,1-2,2H21.991a2,2,0,0,1-2-2V84.017A2,2,0,0,1,21.991,82.017Z" transform="translate(-20 -61.906)"/>
</svg>
